<svg width="18" height="18" viewBox="0 0 18 18" fill="none" xmlns="http://www.w3.org/2000/svg">
<path fill-rule="evenodd" clip-rule="evenodd" d="M14.0138 13.5728C14.7405 12.8899 15.3195 12.0652 15.7149 11.1497C16.1103 10.2341 16.3137 9.24725 16.3125 8.25C16.3125 4.21125 13.0388 0.9375 9 0.9375C4.96125 0.9375 1.6875 4.21125 1.6875 8.25C1.68635 9.24725 1.88975 10.2341 2.28514 11.1497C2.68053 12.0652 3.2595 12.8899 3.98625 13.5728C5.34146 14.8529 7.13576 15.565 9 15.5625C10.8642 15.565 12.6586 14.8529 14.0138 13.5728ZM4.60875 12.609C5.13531 11.9502 5.80351 11.4185 6.56373 11.0534C7.32395 10.6883 8.15666 10.4992 9 10.5C9.84336 10.4992 10.6761 10.6883 11.4363 11.0534C12.1965 11.4185 12.8647 11.9502 13.3913 12.609C12.8168 13.1893 12.1328 13.6497 11.379 13.9636C10.6252 14.2775 9.81655 14.4386 9 14.4375C8.18346 14.4386 7.37483 14.2775 6.62102 13.9636C5.86722 13.6497 5.18324 13.1893 4.60875 12.609ZM11.8125 6C11.8125 6.74592 11.5162 7.46129 10.9887 7.98874C10.4613 8.51618 9.74593 8.8125 9 8.8125C8.25408 8.8125 7.53871 8.51618 7.01127 7.98874C6.48382 7.46129 6.1875 6.74592 6.1875 6C6.1875 5.25408 6.48382 4.53871 7.01127 4.01126C7.53871 3.48382 8.25408 3.1875 9 3.1875C9.74593 3.1875 10.4613 3.48382 10.9887 4.01126C11.5162 4.53871 11.8125 5.25408 11.8125 6Z" fill="#4F4F4F"/>
</svg>
