<svg width="93" height="92" viewBox="0 0 93 92" fill="none" xmlns="http://www.w3.org/2000/svg">
<path d="M0.5 46C0.5 20.5949 21.0949 0 46.5 0V0C71.9051 0 92.5 20.5949 92.5 46V46C92.5 71.4051 71.9051 92 46.5 92V92C21.0949 92 0.5 71.4051 0.5 46V46Z" fill="#FEECEC"/>
<path d="M46.5003 79.3333C64.9098 79.3333 79.8337 64.4095 79.8337 46C79.8337 27.5905 64.9098 12.6666 46.5003 12.6666C28.0908 12.6666 13.167 27.5905 13.167 46C13.167 64.4095 28.0908 79.3333 46.5003 79.3333Z" fill="#F03738"/>
<path d="M49.68 45.6464L49.3264 46L49.68 46.3535L57.3466 54.0202C58.118 54.7916 58.118 56.075 57.3466 56.8464C56.9454 57.2477 56.4414 57.4333 55.9335 57.4333C55.4257 57.4333 54.9217 57.2477 54.5204 56.8464L46.8537 49.1797L46.5002 48.8262L46.1466 49.1797L38.48 56.8464C38.0787 57.2477 37.5747 57.4333 37.0669 57.4333C36.559 57.4333 36.055 57.2477 35.6537 56.8464C34.8823 56.075 34.8823 54.7916 35.6537 54.0202L43.3204 46.3535L43.674 46L43.3204 45.6464L35.6537 37.9797C34.8823 37.2083 34.8823 35.9249 35.6537 35.1535C36.4252 34.3821 37.7086 34.3821 38.48 35.1535L46.1466 42.8202L46.5002 43.1737L46.8537 42.8202L54.5204 35.1535C55.2918 34.3821 56.5752 34.3821 57.3466 35.1535C58.118 35.9249 58.118 37.2083 57.3466 37.9797L49.68 45.6464Z" fill="white" stroke="white"/>
</svg>
