<svg width="93" height="92" viewBox="0 0 93 92" fill="none" xmlns="http://www.w3.org/2000/svg">
<path d="M0.5 46C0.5 20.5949 21.0949 0 46.5 0V0C71.9051 0 92.5 20.5949 92.5 46V46C92.5 71.4051 71.9051 92 46.5 92V92C21.0949 92 0.5 71.4051 0.5 46V46Z" fill="#E8F8E8"/>
<path d="M79.3337 46C79.3337 64.1333 64.6337 78.8333 46.5003 78.8333C28.367 78.8333 13.667 64.1333 13.667 46C13.667 27.8666 28.367 13.1666 46.5003 13.1666C64.6337 13.1666 79.3337 27.8666 79.3337 46Z" fill="#3CC13B" stroke="#3CC13B"/>
<path d="M41.4132 52.2535L41.7668 52.6071L42.1203 52.2535L59.2537 35.1202C60.0251 34.3488 61.3085 34.3488 62.0799 35.1202C62.8513 35.8916 62.8513 37.175 62.0799 37.9464L43.1799 56.8464C42.8059 57.2204 42.2993 57.4333 41.7668 57.4333C41.2342 57.4333 40.7277 57.2204 40.3537 56.8464L30.9204 47.4131C30.1489 46.6417 30.1489 45.3583 30.9204 44.5868C31.6918 43.8154 32.9752 43.8154 33.7466 44.5868L41.4132 52.2535Z" fill="white" stroke="white"/>
</svg>
